<?xml version="1.0" encoding="utf-8"?>
<!-- Generator: Adobe Illustrator 27.7.0, SVG Export Plug-In . SVG Version: 6.00 Build 0)  -->
<svg version="1.1" id="Layer_1" xmlns="http://www.w3.org/2000/svg" xmlns:xlink="http://www.w3.org/1999/xlink" x="0px" y="0px"
	 viewBox="0 0 754.1 276.9" style="enable-background:new 0 0 754.1 276.9;" xml:space="preserve">
<g>
	<g>
		
			<image style="overflow:visible;" width="512" height="509" xlink:href="E2DB599349F3D252.png"  transform="matrix(0.3086 0 0 0.3086 144.09 116.6729)">
		</image>
	</g>
</g>
<g>
	<g>
		
			<image style="overflow:visible;" width="438" height="512" xlink:href="E2DB599349F3D253.png"  transform="matrix(0.3105 0 0 0.3105 315.611 114.79)">
		</image>
	</g>
</g>
<g>
	<g>
		
			<image style="overflow:visible;" width="437" height="512" xlink:href="E2DB599349F3D254.png"  transform="matrix(0.3164 0 0 0.3164 616.1479 115.0921)">
		</image>
	</g>
</g>
<g>
	<g>
		
			<image style="overflow:visible;" width="441" height="512" xlink:href="E2DB599349F3D255.png"  transform="matrix(0.3066 0 0 0.3066 465.9643 114.885)">
		</image>
	</g>
</g>
<g>
	<g>
		
			<image style="overflow:visible;" width="437" height="512" xlink:href="E2DB599349F3D250.png"  transform="matrix(0.3066 0 0 0.3066 -0.346 116.675)">
		</image>
	</g>
</g>
<g>
	<g>
		
			<image style="overflow:visible;" width="508" height="512" xlink:href="E2DB599349F3D251.png"  transform="matrix(0.2051 0 0 0.2051 331.5309 5.6028)">
		</image>
	</g>
</g>
<g>
	<g>
		
			<image style="overflow:visible;" width="438" height="512" xlink:href="E2DB599349F3D264.png"  transform="matrix(0.1602 0 0 0.1602 2.7608 20.8472)">
		</image>
	</g>
</g>
<g>
	<g>
		
			<image style="overflow:visible;" width="464" height="512" xlink:href="E2DB599349F3D267.png"  transform="matrix(0.1641 0 0 0.1641 78.3668 19.7621)">
		</image>
	</g>
</g>
<g>
	<g>
		
			<image style="overflow:visible;" width="449" height="512" xlink:href="E2DB599349F3D26A.png"  transform="matrix(0.1582 0 0 0.1582 244.4134 22.755)">
		</image>
	</g>
</g>
<g>
	<g>
		
			<image style="overflow:visible;" width="464" height="512" xlink:href="C9B3F249B03D79A8.png"  transform="matrix(0.1641 0 0 0.1641 160.2568 20.2121)">
		</image>
	</g>
</g>
</svg>
